<?xml version="1.0" encoding="UTF-8"?>
<!DOCTYPE svg PUBLIC "-//W3C//DTD SVG 1.1//EN" "http://www.w3.org/Graphics/SVG/1.1/DTD/svg11.dtd">
<!-- Creator: CorelDRAW X7 -->
<svg xmlns="http://www.w3.org/2000/svg" xml:space="preserve" width="10.4167in" height="6.94444in" version="1.1" style="shape-rendering:geometricPrecision; text-rendering:geometricPrecision; image-rendering:optimizeQuality; fill-rule:evenodd; clip-rule:evenodd"
viewBox="0 0 12245 8163"
 xmlns:xlink="http://www.w3.org/1999/xlink">
 <defs>
  <style type="text/css">
   <![CDATA[
    .fil1 {fill:#FEFEFE}
    .fil4 {fill:#D3EDF2}
    .fil3 {fill:#C6E8EF}
    .fil2 {fill:#B7E2E9}
    .fil0 {fill:#A3DBE2}
    .fil12 {fill:#76C376}
    .fil9 {fill:#6DBD70}
    .fil10 {fill:#61B164}
    .fil11 {fill:#579E58}
    .fil13 {fill:#259AAA}
    .fil6 {fill:#248D80}
    .fil5 {fill:#267E71}
    .fil8 {fill:#296A5D}
    .fil7 {fill:#296255}
   ]]>
  </style>
 </defs>
 <g id="Layer_x0020_1">
  <metadata id="CorelCorpID_0Corel-Layer"/>
  <polygon class="fil0" points="12245,0 12245,8163 5,8163 5,0 "/>
  <path class="fil1" d="M3384 796c-43,-16 -97,1 -148,28 -22,-76 -70,-177 -171,-225 -175,-84 -266,178 -266,178 0,0 -175,-528 -479,-460 -305,69 -251,460 -251,460 0,0 -84,-171 -274,-140 -190,30 -114,359 -114,359 -243,39 -388,99 -388,99l2616 0 -405 -107c-7,-53 -30,-158 -120,-192z"/>
  <path class="fil1" d="M11010 2597c-47,-17 -106,1 -162,31 -24,-83 -76,-193 -186,-246 -190,-91 -290,194 -290,194 0,0 -190,-575 -522,-500 -331,74 -273,500 -273,500 0,0 -91,-186 -298,-153 -207,33 -124,391 -124,391 -265,43 -422,108 -422,108l2848 0 -441 -116c-7,-58 -33,-172 -130,-209z"/>
  <path class="fil1" d="M8554 1156c38,-14 85,0 130,25 19,-67 61,-156 150,-198 153,-73 233,156 233,156 0,0 153,-463 420,-403 267,60 220,403 220,403 0,0 73,-149 240,-123 166,27 100,315 100,315 213,35 340,87 340,87l-2293 0 355 -94c6,-46 26,-138 105,-168z"/>
  <path class="fil1" d="M855 1873c20,-8 46,0 71,13 11,-36 34,-85 82,-108 84,-40 128,85 128,85 0,0 84,-253 231,-221 146,33 120,221 120,221 0,0 41,-82 132,-67 91,15 55,173 55,173 117,19 186,47 186,47l-1258 0 195 -51c3,-25 15,-76 58,-92z"/>
  <path class="fil2" d="M6122 3961c-1028,0 -1861,-834 -1861,-1862 0,-1028 833,-1861 1861,-1861 1028,0 1862,833 1862,1861 0,1028 -834,1862 -1862,1862zm0 -3403c-851,0 -1541,690 -1541,1541 0,852 690,1542 1541,1542 852,0 1542,-690 1542,-1542 0,-851 -690,-1541 -1542,-1541z"/>
  <path class="fil3" d="M6122 3641c-851,0 -1541,-690 -1541,-1542 0,-851 690,-1541 1541,-1541 852,0 1542,690 1542,1541 0,852 -690,1542 -1542,1542zm0 -2712c-646,0 -1170,524 -1170,1170 0,647 524,1171 1170,1171 647,0 1170,-524 1170,-1171 0,-646 -523,-1170 -1170,-1170z"/>
  <path class="fil4" d="M6122 3270c-646,0 -1170,-524 -1170,-1171 0,-646 524,-1170 1170,-1170 647,0 1170,524 1170,1170 0,647 -523,1171 -1170,1171z"/>
  <path class="fil1" d="M7061 2099c0,519 -420,939 -939,939 -518,0 -938,-420 -938,-939 0,-518 420,-938 938,-938 519,0 939,420 939,938z"/>
  <path class="fil2" d="M12245 6791l-25 0 0 -3873c-164,78 -325,161 -511,186 -126,16 -257,5 -381,30 -355,72 -519,410 -848,538 -232,90 -531,69 -724,206 -170,120 -203,325 -363,453 -119,94 -286,130 -456,130 -79,0 -158,-8 -233,-21 -239,-41 -463,-127 -704,-159 -68,-9 -136,-13 -205,-13 -244,0 -489,56 -694,161 -103,52 -908,585 -1713,1195 2,2 3,2 3,2 -2,0 -1158,-789 -1244,-833 -205,-105 -449,-161 -694,-161 -68,0 -137,5 -205,14 -241,32 -465,118 -704,159 -75,13 -154,20 -232,21 -171,0 -338,-36 -456,-131 -160,-127 -194,-333 -364,-453 -193,-136 -491,-115 -724,-206 -300,-116 -464,-408 -760,-513l0 3268 0 -4286c152,78 301,161 474,186 117,16 239,4 353,30 329,72 482,410 787,538 216,90 492,69 672,206 157,119 188,325 337,453 110,94 265,130 423,130 72,0 146,-8 215,-21 222,-41 430,-127 654,-159 63,-9 126,-13 190,-13 226,0 453,56 644,161 79,43 1151,833 1153,833 0,0 -1,-1 -3,-2 747,-611 1494,-1143 1589,-1196 191,-105 418,-161 644,-161 64,0 127,5 190,14 224,31 432,118 653,159 70,13 143,20 216,20 158,0 313,-36 423,-130 148,-127 180,-333 337,-453 158,-120 391,-118 591,-178l1031 0 -441 -116c-7,-56 -31,-165 -121,-205 116,-108 235,-209 398,-245 115,-25 237,-13 354,-30 172,-24 322,-108 474,-186l0 4651z"/>
  <path class="fil1" d="M11581 2922l-1031 0c28,-8 54,-17 80,-28 155,-64 270,-183 389,-293 90,40 114,149 121,205l441 116z"/>
  <polygon class="fil2" points="12220,7569 8,7569 8,6791 12220,6791 "/>
  <path class="fil3" d="M12220 6791l-12212 0 0 -3268c296,105 460,397 760,513 233,91 531,70 724,206 170,120 204,326 364,453 118,95 285,131 456,131 78,-1 157,-8 232,-21 239,-41 463,-127 704,-159 68,-9 137,-14 205,-14 245,0 489,56 694,161 86,44 1242,833 1244,833 0,0 -1,0 -3,-2 805,-610 1610,-1143 1713,-1195 205,-105 450,-161 694,-161 69,0 137,4 205,13 241,32 465,118 704,159 75,13 154,21 233,21 170,0 337,-36 456,-130 160,-128 193,-333 363,-453 193,-137 492,-116 724,-206 329,-128 493,-466 848,-538 124,-25 255,-14 381,-30 186,-25 347,-108 511,-186l0 3873z"/>
  <polygon class="fil5" points="10142,5450 10821,5425 7657,4190 6140,3730 5479,3302 4527,2826 3130,3492 2126,3904 8,4680 16,5450 755,5450 "/>
  <polygon class="fil6" points="6371,5450 4786,4832 3269,4372 2608,3943 1656,3468 258,4134 16,4233 16,5450 "/>
  <polygon class="fil6" points="12245,5450 12245,4301 11754,4119 10357,3453 9405,3929 8744,4357 7227,4817 5605,5450 "/>
  <path class="fil7" d="M2111 5120c10,2 18,9 19,15 1,8 -7,9 -17,10 -10,1 -16,5 -19,10 210,-25 420,-55 629,-71 502,-39 1008,-65 1511,-53 289,7 576,27 864,47 -13,-8 -12,-16 3,-24 4,-2 9,-4 13,-6 13,-6 15,-12 5,-20 -7,-6 -16,-11 -24,-15 -12,-7 -24,-12 -35,-18 -7,-4 -8,-8 1,-11 3,-1 6,-2 9,-3 9,-4 17,-7 25,-11 8,-3 9,-8 2,-13 -6,-4 -12,-9 -18,-13 -12,-7 -25,-13 -36,-21 -13,-8 -11,-11 1,-19 16,-11 32,-22 47,-34 17,-13 27,-28 28,-45 0,-6 -2,-11 -12,-13 -14,-2 -27,-5 -41,-7 -29,-3 -45,-24 -36,-39 8,-12 20,-19 35,-25 22,-8 38,-20 45,-36 4,-8 6,-17 1,-26 -3,1 -4,1 -6,1 -27,6 -39,0 -37,-19 1,-5 2,-9 1,-14 0,-3 -3,-6 -4,-8 -4,1 -8,2 -11,3 -18,8 -36,13 -57,8 -22,-5 -29,-22 -15,-34 9,-7 17,-15 24,-23 9,-13 15,-26 13,-40 -2,-11 -10,-14 -25,-8 -8,3 -16,7 -25,11 -11,4 -22,1 -22,-8 0,-5 4,-11 9,-14 15,-9 17,-19 11,-31 -6,-14 -13,-30 2,-45 2,-2 -1,-8 -4,-10 -3,-3 -10,-3 -15,-3 -6,0 -11,1 -17,2 -10,2 -17,0 -19,-7 -2,-7 -3,-14 -5,-20 -7,-17 -19,-32 -45,-40 -8,-2 -15,-2 -19,3 -4,7 -7,14 -10,21 -11,19 -22,38 -59,43 -16,3 -20,7 -18,17 2,8 4,15 6,23 3,9 0,17 -13,23 -4,2 -8,5 -10,7 -6,11 -12,22 -18,33 -4,8 -7,17 -18,22 -17,7 -35,15 -53,20 -11,3 -13,7 -12,13 3,19 17,34 35,48 14,11 13,13 -4,22 -2,1 -4,2 -7,3 -15,4 -31,8 -47,11 -8,2 -14,5 -14,10 1,8 2,17 6,24 7,10 17,19 25,29 6,7 12,14 7,22 -10,19 -29,34 -48,49 -1,1 -9,2 -11,1 -20,-13 -42,-26 -50,-44 -10,-20 -20,-41 -22,-64 0,-9 -4,-19 -7,-28 -1,-3 -8,-5 -11,-7 -3,2 -8,5 -9,7 -5,13 -9,26 -14,39 -6,15 -12,31 -19,47 -1,2 -7,7 -10,6 -5,0 -12,-3 -14,-6 -6,-8 -8,-16 -13,-24 -3,-6 -3,-14 -17,-17 -5,13 -9,24 -13,36 -3,6 -5,12 -10,17 -7,7 -16,8 -27,2 -7,-5 -13,-10 -19,-16 -11,-10 -20,-21 -32,-31 -11,-9 -26,-12 -40,1 -1,1 -2,2 -4,3 -10,8 -23,7 -28,-3 -6,-10 -10,-21 -14,-31 -6,-17 -9,-34 -19,-50 -11,-17 -15,-35 -19,-53 -3,-13 -7,-26 -12,-39 -2,-6 -9,-12 -14,-17 -1,0 -3,0 -5,0 -1,8 -3,15 -4,23 -4,14 -6,28 -10,41 -4,18 -10,36 -15,54 -6,17 -12,34 -16,52 -4,19 -7,38 -10,57 -2,11 -6,21 -20,28 -8,4 -19,3 -25,-3 -4,-5 -8,-11 -9,-17 -8,-22 -13,-45 -21,-67 -2,-7 -2,-16 -15,-21 -1,3 -2,5 -3,8 -2,21 -3,43 -7,65 -1,12 -6,25 -10,37 -3,8 -10,15 -13,22 -5,16 -7,33 -13,49 -4,9 -12,19 -30,24 -1,-3 -1,-6 -2,-8 -2,-15 -12,-27 -32,-34 -8,-3 -9,-5 -6,-10 13,-20 5,-43 -19,-56 -14,-8 -27,-7 -36,4 -5,6 -7,13 -11,20 -4,10 -7,20 -13,29 -4,5 -12,9 -20,11 -10,2 -18,-3 -22,-8 -6,-7 -10,-14 -13,-21 -5,-14 -8,-28 -13,-42 -2,-6 -8,-11 -12,-16 -12,4 -17,10 -18,17 -1,8 -1,17 -2,25 -3,16 -5,32 -11,47 -5,12 -16,23 -35,28 -10,4 -18,1 -24,-3 -7,-3 -9,-8 -6,-14 8,-20 13,-41 9,-63 -1,-9 -6,-17 -17,-23 -7,-4 -8,-8 -5,-13 3,-5 6,-10 9,-15 3,-8 6,-16 8,-25 2,-5 -3,-9 -11,-11 -12,-3 -15,-8 -15,-16 1,-10 1,-21 0,-32 -1,-11 -18,-21 -35,-21 -13,0 -21,6 -24,19l-1 1c-1,23 -9,46 -20,68 -5,10 -10,20 -17,29 -5,7 -12,7 -20,1 -2,-2 -4,-4 -5,-6 -5,-12 -11,-23 -13,-35 -3,-14 -10,-27 -22,-38 -14,-13 -23,-27 -21,-44 1,-10 0,-21 -2,-31 -1,-8 -3,-17 -15,-23 -1,2 -2,2 -2,3 -8,27 -16,54 -24,81 -6,19 -12,37 -18,56 -4,16 -7,32 -10,48 -3,12 -5,24 -15,35 -5,4 -10,9 -19,7 -6,-2 -12,-7 -13,-11 -6,-15 -8,-30 -13,-44 -4,-11 -9,-21 -15,-31 -2,-4 -9,-6 -14,-9 -3,4 -7,8 -8,12 -1,18 0,36 -2,53 -1,14 -5,27 -8,41 -1,2 -6,6 -8,5 -4,0 -10,-2 -12,-5 -5,-7 -9,-14 -13,-21 -6,-8 -8,-17 -22,-22 -1,3 -3,4 -3,6 -6,34 -12,69 -18,103 -4,29 -12,57 -25,84 -6,11 -17,21 -33,28 -4,1 -9,1 -14,2 -1,-4 -3,-7 -2,-10 2,-4 6,-8 9,-13 8,-12 17,-24 24,-36 5,-11 -1,-19 -15,-26 -6,-2 -12,-5 -18,-9 -26,-14 -43,-32 -56,-51 -4,-7 -11,-11 -23,-11 -11,-1 -19,3 -22,9 -5,11 -8,22 -11,32 -4,14 -8,29 -13,43 -4,10 -16,16 -28,16 -17,-1 -24,5 -18,15 3,6 8,11 12,17 5,6 4,11 -3,15 -8,3 -15,2 -23,-1 -21,-11 -31,-26 -38,-41 -8,-15 -13,-31 -20,-47 -4,-7 -9,-15 -14,-22l-3 -1c-2,3 -6,5 -6,8 -3,11 -4,22 -7,33 -3,10 -8,19 -12,28 -4,8 -9,17 -12,25 -9,22 -16,45 -27,67 -8,17 -27,28 -56,28 -13,1 -22,-5 -20,-13 1,-4 3,-8 7,-12 15,-17 12,-36 -6,-50 -23,-18 -39,-38 -46,-61 -2,-6 -8,-8 -16,-8 -6,0 -13,1 -19,3 -11,3 -21,8 -32,11 -9,3 -12,2 -15,-5 -8,-20 -17,-41 -27,-61 -11,-22 -22,-44 -21,-68 1,-7 0,-14 -2,-21 -1,-5 -4,-10 -8,-14 -5,-6 -14,-6 -17,0 -5,8 -9,16 -11,24 -7,24 -12,49 -19,73 -3,13 -18,18 -37,15 -20,-3 -25,-12 -14,-22 2,-2 5,-4 7,-6 15,-10 16,-21 6,-33 -3,-3 -6,-6 -9,-10 -12,-14 -26,-30 -26,-47 0,-14 -8,-26 -18,-38 -11,-13 -17,-27 -6,-41 2,-2 2,-6 1,-8 -3,-10 -7,-20 -13,-30 -10,-16 -23,-32 -21,-51 0,-2 0,-4 -1,-5 -3,-2 -6,-5 -10,-6 -3,0 -8,3 -10,5 -2,3 -4,7 -3,10 8,25 -4,48 -15,71 -9,18 -16,35 -12,54 0,3 -1,6 -3,9 -1,2 -4,5 -7,5 -2,0 -6,-2 -8,-4 -5,-6 -10,-13 -16,-21 -2,2 -6,4 -7,6 -3,6 -6,13 -7,19 -4,25 -4,50 -17,75 -1,1 -1,3 -1,5 -4,11 -7,21 -11,32 -6,18 -14,37 -20,55 -5,20 -8,40 -13,60 -6,19 -12,38 -29,54 -3,2 -1,7 0,10 2,7 7,13 7,20 0,15 -5,22 -26,27 -8,3 -16,6 -22,10 -13,9 -10,16 8,18z"/>
  <path class="fil7" d="M1330 5196c277,15 554,-15 831,-49l2 -1c13,-6 15,-12 5,-20 -8,-5 -16,-10 -25,-15 -11,-6 -23,-12 -35,-18 -7,-3 -8,-7 1,-10 3,-2 6,-3 9,-4 9,-3 18,-6 26,-10 8,-4 8,-9 1,-14 -6,-4 -12,-8 -18,-12 -12,-7 -25,-14 -36,-22 -12,-8 -11,-11 1,-19 17,-11 33,-22 47,-33 18,-13 28,-28 28,-46 1,-6 -2,-11 -12,-13 -13,-2 -27,-5 -41,-6 -28,-4 -45,-25 -35,-40 7,-11 20,-18 34,-24 22,-9 38,-21 46,-37 4,-8 6,-17 0,-26 -3,1 -4,1 -6,1 -27,6 -39,0 -37,-18 1,-5 2,-10 2,-15 -1,-3 -3,-5 -5,-8 -4,1 -8,2 -11,4 -17,7 -36,12 -57,7 -22,-4 -29,-22 -15,-33 9,-8 17,-16 24,-24 9,-12 16,-25 13,-39 -1,-12 -9,-15 -25,-9 -8,4 -16,8 -25,11 -11,4 -22,1 -22,-8 1,-5 4,-11 10,-14 15,-9 16,-18 11,-30 -7,-15 -14,-30 1,-45 2,-3 -1,-8 -4,-11 -3,-2 -10,-3 -15,-3 -5,0 -11,2 -17,3 -10,1 -17,-1 -19,-8 -2,-6 -3,-13 -5,-20 -6,-17 -19,-32 -45,-39 -8,-3 -15,-3 -18,3 -5,6 -7,13 -11,20 -11,19 -21,39 -59,44 -16,2 -19,6 -18,17 2,7 4,15 6,22 3,10 1,18 -13,23 -4,2 -8,5 -10,8 -6,11 -12,22 -17,33 -4,8 -7,16 -19,21 -17,8 -34,15 -53,20 -11,3 -12,7 -11,13 2,19 16,35 34,49 14,11 13,12 -4,21 -2,1 -4,2 -6,3 -16,4 -32,8 -48,12 -8,1 -14,4 -13,9 0,8 1,17 6,25 6,10 16,19 24,28 6,7 12,14 7,23 -10,18 -29,33 -47,48 -2,2 -10,2 -11,1 -21,-12 -42,-25 -51,-43 -10,-21 -20,-42 -21,-64 -1,-10 -4,-20 -8,-29 -1,-3 -7,-5 -11,-7 -3,3 -8,5 -9,8 -5,12 -8,25 -13,38 -6,16 -13,31 -20,47 -1,3 -7,7 -10,7 -5,-1 -12,-4 -14,-7 -5,-7 -8,-16 -13,-24 -3,-6 -3,-13 -17,-17 -4,13 -8,25 -13,36 -2,6 -5,12 -10,17 -7,8 -16,9 -26,2 -8,-4 -14,-10 -20,-15 -10,-11 -19,-22 -31,-31 -12,-9 -27,-13 -40,0 -1,1 -3,3 -4,4 -11,7 -24,6 -29,-3 -5,-11 -9,-21 -13,-32 -7,-17 -10,-34 -20,-50 -11,-17 -15,-34 -19,-52 -2,-14 -7,-27 -12,-40 -2,-6 -9,-11 -13,-17 -2,0 -4,0 -5,1 -2,7 -4,15 -5,22 -3,14 -6,28 -10,42 -4,18 -10,35 -15,53 -5,17 -12,35 -16,52 -4,19 -7,38 -10,57 -2,11 -6,21 -20,28 -8,4 -19,4 -24,-2 -5,-6 -8,-12 -10,-18 -7,-22 -13,-45 -20,-67 -3,-7 -3,-15 -16,-21 -1,4 -2,6 -2,8 -3,22 -4,43 -7,65 -2,13 -6,25 -11,38 -3,7 -10,14 -13,21 -5,17 -7,33 -13,49 -4,10 -12,19 -30,24 0,-3 -1,-5 -2,-8 -2,-14 -12,-26 -32,-34 -8,-2 -9,-4 -5,-9 12,-21 4,-44 -20,-57 -14,-7 -27,-6 -35,4 -5,7 -8,14 -12,21 -4,9 -7,19 -13,28 -4,5 -12,10 -20,11 -10,3 -18,-3 -22,-8 -5,-6 -10,-13 -12,-21 -5,-13 -8,-28 -14,-42 -2,-5 -7,-10 -12,-16 -12,5 -17,11 -18,18 -1,8 0,16 -2,25 -3,15 -5,31 -11,47 -5,12 -16,22 -35,28 -10,3 -17,1 -24,-3 -7,-4 -9,-8 -6,-14 9,-21 13,-42 10,-63 -2,-9 -6,-18 -18,-24 -7,-4 -8,-8 -5,-13 3,-5 7,-10 9,-15 3,-8 6,-16 8,-24 2,-6 -3,-10 -10,-12 -13,-2 -15,-8 -15,-15 0,-11 0,-22 -1,-33 -1,-11 -18,-21 -35,-21 -12,0 -21,6 -24,19l0 2c-2,23 -10,45 -21,67 -5,10 -10,20 -17,29 -4,7 -12,7 -19,1 -3,-2 -5,-4 -6,-6 -5,-11 -10,-23 -13,-34 -3,-15 -9,-27 -22,-39 -14,-13 -23,-27 -21,-43 1,-11 0,-21 -1,-32 -2,-8 -3,-17 -16,-23 -1,2 -2,3 -2,4 -8,26 -16,53 -24,80 -6,19 -12,38 -17,56 -5,16 -8,32 -11,48 -3,12 -4,25 -15,35 -5,5 -10,9 -19,7 -5,-2 -12,-7 -13,-11 -6,-14 -8,-29 -13,-44 -4,-11 -9,-21 -15,-31 -2,-4 -9,-6 -14,-9 -2,4 -7,8 -7,12 -2,18 -1,36 -3,54 -1,13 -5,27 -8,40 -1,2 -6,6 -8,6 -4,-1 -10,-3 -12,-5 -5,-7 -9,-15 -13,-22 -5,-7 -8,-16 -22,-21 -1,2 -2,3 -3,5 -6,35 -12,69 -17,104 -5,28 -13,56 -26,83 -6,11 -16,22 -33,28 -3,2 -9,1 -14,2 -1,-3 -3,-6 -2,-9 2,-5 6,-9 9,-13 8,-13 17,-25 24,-37 6,-11 -1,-19 -15,-25 -6,-3 -12,-6 -18,-9 -25,-14 -43,-32 -56,-52 -4,-6 -11,-11 -23,-11 -10,0 -19,3 -22,10 -5,10 -7,21 -11,32 -4,14 -8,28 -13,42 -1,2 -2,3 -3,5l0 187 1148 0c49,-26 105,-41 166,-38z"/>
  <path class="fil7" d="M4014 5018c9,0 18,4 19,7 0,2 -1,3 -3,3 68,1 136,2 204,3 195,5 390,16 584,28 359,0 702,0 704,1l293 0c2,0 4,0 7,0 2,0 5,0 7,0l73 0c5,-1 91,-1 112,0 6,0 12,0 18,0l990 0c-2,-2 -4,-4 -7,-7 -4,-4 -8,-9 -23,-11 -5,-1 -7,-2 -2,-4 3,-2 7,-3 10,-4 64,-19 57,-20 20,-50 -15,-12 -45,-44 -61,-52 -37,-20 -130,-36 -177,-44 -33,-5 -68,-1 -92,-27 -32,22 -63,-9 -98,-12 -51,-4 -119,31 -157,-12 -11,-11 -20,-22 -22,-33 0,-6 -4,-11 -7,-16 -2,-1 -8,-2 -11,-3 -3,1 -8,2 -9,4 -5,6 -9,13 -14,20 -6,8 -12,17 -19,25 -1,1 -7,4 -11,3 -5,0 -11,-1 -13,-3 -6,-4 -8,-9 -13,-13 -3,-3 -3,-7 -17,-9 -5,7 -9,13 -13,19 -3,3 -6,7 -10,9 -8,4 -17,5 -27,1 -7,-2 -13,-5 -19,-8 -11,-5 -20,-11 -32,-16 -11,-5 -26,-7 -40,0 -1,1 -2,1 -4,2 -11,4 -23,3 -28,-2 -6,-5 -10,-11 -14,-16 -6,-9 -9,-19 -19,-27 -11,-9 -16,-18 -19,-28 -3,-7 -7,-14 -12,-21 -3,-3 -9,-6 -14,-9 -1,0 -3,1 -5,1 -1,4 -3,7 -5,11 -3,8 -5,15 -9,23 -5,9 -10,18 -16,28 -5,9 -11,18 -15,27 -5,10 -8,21 -10,31 -2,5 -6,11 -20,14 -8,3 -19,2 -25,-1 -4,-3 -8,-6 -10,-9 -7,-12 -12,-24 -20,-36 -2,-3 -2,-8 -15,-11 -1,2 -2,3 -3,4 -2,12 -3,23 -7,35 -2,7 -6,13 -10,20 -3,4 -10,7 -13,11 -5,9 -8,18 -14,26 -3,5 -11,10 -29,13 -1,-2 -2,-3 -2,-4 -2,-8 -12,-14 -32,-18 -8,-2 -9,-3 -6,-6 13,-10 4,-23 -19,-29 -14,-4 -27,-4 -36,2 -5,3 -8,7 -11,11 -5,5 -7,10 -14,15 -3,2 -12,5 -19,6 -10,1 -18,-2 -23,-5 -5,-3 -9,-7 -12,-11 -5,-7 -8,-15 -13,-22 -2,-3 -8,-6 -12,-9 -13,3 -17,6 -18,10 -1,4 -1,8 -2,13 -3,8 -5,17 -11,25 -5,6 -16,12 -35,15 -10,1 -18,0 -25,-2 -6,-2 -8,-4 -6,-7 9,-11 14,-22 10,-34 -1,-4 -6,-9 -17,-12 -8,-2 -8,-4 -5,-7 2,-3 6,-5 8,-8 4,-4 7,-9 9,-13 1,-3 -3,-5 -11,-6 -12,-1 -15,-4 -15,-8 0,-6 1,-12 0,-17 -1,-6 -18,-12 -35,-12 -13,0 -21,4 -25,10l0 1c-1,13 -10,24 -20,36 -5,5 -10,10 -17,15 -5,4 -12,4 -20,1 -2,-1 -5,-2 -5,-3 -5,-6 -11,-12 -13,-19 -3,-7 -10,-14 -22,-20 -15,-7 -23,-14 -21,-23 0,-6 0,-11 -2,-17 -1,-4 -3,-9 -15,-12l-2 2c-8,14 -16,28 -25,43 -5,10 -12,19 -17,29 -4,9 -7,17 -10,26 -3,6 -5,13 -15,18 -5,3 -11,5 -19,4 -6,-1 -12,-4 -14,-6 -5,-7 -7,-15 -12,-23 -4,-6 -9,-11 -16,-17 -2,-2 -8,-3 -13,-4 -3,2 -7,4 -8,6 -1,9 0,19 -2,28 -1,8 -5,15 -9,22 0,1 -5,3 -7,3 -5,-1 -10,-2 -12,-3 -5,-4 -9,-7 -14,-11 -5,-4 -7,-9 -22,-12l-2 3c-6,18 -12,37 -18,55 -5,15 -12,30 -26,44 -5,6 -16,12 -32,15 -4,1 -10,1 -14,1 -1,-2 -3,-3 -2,-5 2,-2 6,-4 9,-7 8,-6 17,-13 24,-19 5,-6 -1,-10 -15,-14 -6,-1 -13,-3 -18,-4 -26,-8 -43,-17 -56,-28 -5,-3 -12,-5 -23,-6 -11,0 -19,2 -22,6 -5,5 -8,11 -11,16 -5,8 -8,16 -13,23 -4,5 -16,8 -28,8 -17,0 -24,3 -18,9 3,3 8,5 12,8 5,4 4,7 -4,8 -7,2 -15,2 -22,0 -21,-6 -31,-14 -38,-22 -8,-8 -13,-16 -21,-25 -3,-4 -8,-7 -13,-11l-3 -1c-2,2 -6,3 -6,4 -3,6 -4,12 -8,18 -2,5 -7,10 -11,15 -4,4 -9,8 -13,13 -8,12 -15,24 -26,35 -8,9 -27,15 -56,16 -13,0 -22,-3 -20,-8 1,-2 3,-4 6,-6 16,-9 13,-19 -5,-26 -23,-10 -39,-20 -47,-33 -1,-3 -7,-4 -15,-4 -6,0 -13,1 -19,2 -11,1 -21,4 -32,6 -10,1 -12,0 -15,-3 -8,-11 -17,-22 -27,-33 -11,-11 -22,-23 -21,-35 1,-4 0,-8 -2,-12 -1,-2 -4,-5 -8,-7 -5,-3 -14,-3 -17,0 -5,4 -9,8 -11,13 -7,13 -12,25 -19,38 -3,7 -18,10 -37,8 -20,-1 -25,-6 -14,-11 2,-1 4,-3 7,-3 15,-6 16,-12 6,-18 -3,-2 -6,-3 -9,-5 -12,-8 -26,-16 -26,-25 0,-8 -8,-14 -18,-21 -11,-6 -18,-13 -6,-21 2,-1 2,-3 1,-5 -4,-5 -7,-10 -13,-15 -11,-9 -23,-17 -21,-27l-1 -3c-3,-1 -6,-3 -10,-3 -3,0 -8,1 -10,2 -2,2 -4,4 -3,6 8,13 -5,25 -16,37 -8,10 -15,19 -12,29 1,2 0,3 -2,5 -1,1 -4,2 -7,2 -2,0 -6,-1 -8,-2 -6,-3 -10,-7 -16,-11 -3,2 -6,2 -7,3 -3,4 -6,7 -7,11 -4,13 -5,26 -17,39l-1 3c-4,6 -7,11 -11,17 -7,9 -14,19 -20,29 -5,11 -8,21 -13,32 -6,10 -12,20 -29,28 -3,2 -2,4 -1,6 2,3 8,7 8,10 -1,8 -5,12 -27,15 -8,1 -15,3 -21,5 -13,4 -10,8 8,10z"/>
  <path class="fil8" d="M4234 5031c523,13 1042,68 1564,89 53,2 106,3 159,3 26,-31 47,-61 50,-85 12,-68 -38,-64 -105,-74 -65,-9 -137,-32 -203,-26 -103,9 -181,48 -290,42 -112,-5 -214,-41 -327,-42 -148,-1 -290,18 -439,2 -129,-13 -212,-39 -342,-13 -96,19 -151,40 -246,36 -47,-1 -94,-2 -141,-3 -62,-2 -119,-18 -180,-22 -81,-6 -153,23 -231,27 -85,4 -168,-14 -250,-30 -38,-7 -73,-14 -111,-16 -36,-1 -69,2 -103,-10 -39,-13 -73,-69 -115,-69 -18,0 -67,46 -79,58 -43,42 -50,113 -47,180 477,-36 958,-59 1436,-47z"/>
  <path class="fil8" d="M1090 5204l0 30 54 0 0 -33c32,2 62,4 91,5 30,-8 62,-11 95,-10 3,0 6,0 9,1 2,-3 4,-6 6,-9 4,-7 -2,-20 -3,-26 5,-8 14,-15 12,-19 -6,-16 -16,-31 -25,-46 -5,-8 -16,-17 -14,-21 12,-23 -5,-40 -16,-57 -11,-16 -28,-28 -12,-48 1,-2 -2,-7 -4,-10 -8,-10 -18,-20 -26,-31 -6,-10 -25,-18 -4,-32 3,-3 0,-20 -6,-24 -18,-15 -24,-30 -19,-50 9,-30 -10,-47 -38,-60l-3 -3c18,-18 5,-33 -6,-49 -11,-17 -43,-24 -34,-53 3,-7 -10,-21 -19,-28 -4,-4 -17,-1 -26,-1 0,15 -25,23 -13,41 1,2 -2,7 -5,9 -14,13 -30,25 -41,39 -9,13 -17,29 3,42 -13,9 -26,14 -35,23 -6,6 -10,15 -9,22 4,26 8,50 -21,69 -5,3 -8,18 -4,21 21,16 2,25 -8,37 -10,12 -27,29 -23,37 11,23 -3,34 -15,49 -4,5 -11,10 -12,15 -4,32 -12,63 -36,89 -4,5 -8,13 -6,19 1,7 8,13 14,21 -15,17 -12,32 14,42 7,2 17,-1 26,-1 52,0 104,0 159,0z"/>
  <path class="fil8" d="M1330 5196c138,7 276,4 414,-6l-1 -3c-5,-7 -16,-16 -14,-20 12,-24 -5,-41 -16,-58 -11,-15 -28,-28 -12,-48 1,-1 -2,-6 -4,-9 -8,-11 -18,-20 -26,-32 -6,-9 -25,-17 -4,-32 3,-2 0,-19 -6,-24 -18,-14 -24,-30 -19,-49 9,-30 -10,-47 -38,-60l-4 -4c19,-18 6,-32 -5,-49 -11,-17 -43,-24 -34,-52 3,-8 -10,-21 -19,-29 -4,-4 -17,0 -26,0 0,14 -25,23 -13,40 1,2 -3,7 -5,10 -14,13 -30,24 -41,39 -9,12 -18,28 3,42 -14,8 -26,14 -35,23 -6,5 -10,15 -9,22 4,26 8,50 -21,69 -5,3 -8,17 -4,20 21,17 2,26 -8,37 -10,12 -27,30 -23,38 11,22 -3,34 -15,48 -4,5 -11,10 -12,15 -3,26 -9,50 -23,72 7,0 13,0 20,0z"/>
  <path class="fil8" d="M2024 5163c-2,-13 -12,-24 -20,-36 -10,-15 -27,-28 -12,-48 2,-1 -1,-6 -4,-9 -8,-11 -18,-21 -25,-32 -6,-9 -26,-18 -5,-32 4,-2 0,-19 -6,-24 -17,-14 -23,-30 -18,-49 8,-30 -10,-47 -39,-60l-3 -4c19,-18 5,-32 -6,-49 -11,-17 -43,-24 -33,-52 2,-8 -10,-21 -19,-29 -5,-4 -18,0 -27,0 1,14 -24,23 -13,40 2,2 -2,7 -5,10 -13,13 -30,24 -40,39 -9,12 -18,28 2,41 -13,9 -26,15 -35,24 -5,5 -10,15 -9,22 5,25 8,50 -20,68 -5,4 -8,18 -5,21 21,17 2,25 -7,37 -10,12 -28,30 -24,38 12,22 -3,34 -15,48 -4,5 -11,10 -12,15 -2,19 -6,38 -13,55 137,-5 275,-18 413,-34z"/>
  <path class="fil8" d="M1948 5163c-3,3 -5,6 -7,9 153,-16 305,-36 457,-54 -4,-7 -8,-14 -13,-21 -4,-8 -15,-17 -13,-21 12,-23 -5,-40 -16,-57 -11,-16 -28,-28 -12,-48 1,-2 -2,-7 -4,-10 -9,-10 -19,-20 -26,-31 -6,-10 -26,-18 -5,-32 4,-3 1,-20 -5,-24 -18,-15 -24,-30 -19,-50 8,-30 -10,-47 -38,-60l-4 -3c19,-18 6,-33 -5,-49 -12,-17 -43,-24 -34,-53 2,-7 -10,-21 -19,-28 -5,-4 -17,-1 -26,-1 0,15 -25,23 -13,41 1,2 -3,7 -6,9 -13,13 -29,25 -40,39 -9,13 -18,29 2,42 -13,9 -25,14 -34,23 -6,6 -11,15 -9,22 4,26 7,50 -21,69 -5,3 -8,18 -5,21 21,16 3,25 -7,37 -10,12 -28,29 -23,37 11,23 -3,34 -15,49 -5,5 -12,10 -12,15 -4,32 -12,63 -36,89 -4,5 -8,13 -7,19 2,7 9,13 15,21z"/>
  <path class="fil8" d="M2316 5083c-16,17 -13,32 13,42l3 1c131,-17 261,-32 391,-42 15,-1 30,-2 45,-3 5,-7 12,-14 11,-18 -7,-16 -17,-31 -26,-46 -4,-7 -16,-16 -13,-21 11,-23 -5,-40 -17,-57 -10,-15 -27,-28 -12,-48 2,-2 -1,-7 -3,-9 -9,-11 -19,-21 -26,-32 -6,-9 -26,-18 -5,-32 4,-2 0,-19 -6,-24 -17,-14 -23,-30 -18,-49 8,-30 -10,-48 -39,-60l-3 -4c19,-18 6,-32 -5,-49 -12,-17 -43,-24 -34,-52 2,-8 -10,-21 -19,-29 -5,-4 -18,0 -27,0 1,14 -24,23 -13,40 2,2 -2,7 -5,10 -13,13 -29,24 -40,39 -9,12 -18,28 2,41 -13,9 -25,15 -34,23 -6,6 -11,16 -10,23 5,25 8,49 -20,68 -5,4 -8,18 -5,21 21,17 2,25 -7,37 -10,12 -28,29 -24,38 12,22 -3,34 -15,48 -4,5 -11,10 -11,15 -4,32 -12,63 -36,89 -5,5 -8,13 -7,19 2,7 9,13 15,21z"/>
  <path class="fil8" d="M2723 5084c92,-7 184,-14 276,-20 -4,-6 -9,-12 -13,-18 -10,-15 -27,-28 -12,-48 2,-2 -1,-7 -3,-9 -9,-11 -19,-21 -26,-32 -6,-9 -26,-18 -5,-32 4,-2 0,-19 -6,-24 -17,-14 -23,-30 -18,-49 8,-30 -10,-48 -39,-60l-3 -4c19,-18 6,-32 -6,-49 -11,-17 -42,-24 -33,-52 2,-8 -10,-22 -19,-29 -5,-4 -18,0 -27,0 1,14 -24,22 -13,40 2,2 -2,7 -5,10 -13,13 -30,24 -40,39 -9,12 -18,28 2,41 -13,9 -25,15 -35,23 -5,6 -10,16 -9,23 5,25 8,49 -20,68 -5,4 -8,18 -5,21 21,17 2,25 -7,37 -10,12 -28,29 -24,38 12,22 -3,34 -15,48 -4,5 -11,10 -11,15 -2,12 -4,23 -7,34 41,-4 82,-8 123,-11z"/>
  <path class="fil8" d="M2937 5068c89,-6 179,-12 268,-17 3,-3 -1,-18 -6,-23 -18,-14 -24,-30 -19,-49 8,-30 -10,-48 -38,-60l-4 -4c19,-18 6,-32 -5,-49 -11,-17 -43,-24 -34,-52 3,-8 -10,-21 -19,-29 -4,-4 -17,0 -26,0 0,14 -25,23 -13,40 1,2 -3,7 -5,10 -14,13 -30,24 -41,39 -9,12 -18,28 3,41 -14,9 -26,15 -35,23 -6,6 -10,16 -9,23 4,25 7,49 -21,68 -5,4 -8,18 -4,21 9,7 10,13 8,18z"/>
  <path class="fil8" d="M3195 5052c74,-4 149,-8 224,-11 0,-2 0,-3 0,-5 8,-30 -10,-47 -38,-60l-4 -4c19,-18 6,-32 -5,-49 -11,-17 -43,-24 -34,-52 2,-8 -10,-21 -19,-29 -5,-4 -17,0 -26,0 0,14 -25,23 -13,40 1,2 -3,7 -5,10 -14,13 -30,24 -41,39 -9,12 -18,28 3,41 -14,9 -26,15 -35,23 -6,6 -11,16 -9,23 2,12 3,23 2,34z"/>
  <path class="fil8" d="M3679 5032l-2 -4c-18,-14 -24,-30 -19,-49 8,-30 -10,-47 -38,-60l-4 -4c19,-18 6,-32 -5,-49 -12,-17 -43,-23 -34,-52 2,-8 -10,-21 -19,-29 -5,-4 -17,0 -26,0 0,15 -25,23 -13,40 1,2 -3,7 -5,10 -14,13 -30,24 -41,39 -9,12 -18,29 3,42 -14,8 -26,14 -35,23 -6,5 -11,15 -9,22 4,26 7,50 -21,69 -3,1 -5,7 -6,11 92,-4 183,-7 274,-9z"/>
  <path class="fil8" d="M3866 5029c89,-1 178,-1 266,1l-1 -2c-18,-14 -24,-30 -19,-49 8,-30 -10,-48 -38,-60l-4 -4c19,-18 6,-32 -5,-49 -11,-17 -43,-24 -34,-52 3,-8 -10,-21 -19,-29 -4,-4 -17,0 -26,0 0,14 -25,23 -13,40 1,2 -3,7 -5,10 -14,13 -30,24 -41,39 -9,12 -18,28 3,41 -14,9 -26,15 -35,23 -6,6 -11,16 -9,23 4,25 7,49 -20,68z"/>
  <path class="fil8" d="M4011 5028c1,-2 1,-4 1,-7 9,-30 -10,-47 -38,-60l-4 -4c19,-18 6,-32 -5,-49 -11,-17 -43,-24 -34,-52 3,-8 -10,-21 -19,-29 -4,-4 -17,0 -26,0 0,14 -25,23 -13,40 1,2 -3,7 -5,10 -14,13 -30,24 -41,39 -9,12 -18,28 3,41 -14,9 -26,15 -35,24 -6,5 -10,15 -9,22 1,9 3,18 3,27 74,-1 148,-2 222,-2z"/>
  <path class="fil8" d="M3892 5029l0 -1c-18,-14 -24,-29 -19,-49 9,-30 -10,-47 -38,-60l-4 -3c19,-19 6,-33 -5,-49 -11,-17 -43,-24 -34,-53 3,-8 -10,-21 -19,-29 -4,-3 -17,0 -26,0 0,15 -25,23 -13,40 1,2 -3,8 -5,10 -14,13 -30,25 -41,39 -9,13 -18,29 3,42 -14,8 -26,14 -35,23 -6,5 -10,15 -9,22 4,26 7,50 -21,69 -1,1 -2,2 -3,3 90,-2 179,-4 269,-4z"/>
  <path class="fil8" d="M3549 5036c75,-3 149,-5 223,-6 0,-3 1,-6 1,-9 9,-30 -10,-47 -38,-60l-3 -4c18,-18 5,-32 -6,-49 -11,-17 -43,-23 -34,-52 3,-8 -10,-21 -19,-29 -4,-4 -17,0 -26,0 1,14 -25,23 -13,40 1,2 -2,7 -5,10 -14,13 -30,24 -41,39 -9,12 -17,28 3,42 -13,8 -26,14 -35,23 -6,5 -10,15 -9,22 2,11 3,22 2,33z"/>
  <path class="fil8" d="M3352 5034c-6,4 -12,7 -17,11 54,-3 107,-5 161,-7l-3 -4c18,-18 5,-32 -6,-49 -11,-17 -43,-24 -34,-52 3,-8 -10,-21 -19,-29 -4,-4 -17,0 -26,0 1,14 -24,23 -13,40 1,2 -2,7 -5,10 -14,13 -30,24 -41,39 -9,12 -17,28 3,41z"/>
  <path class="fil8" d="M3297 5046c-4,-17 -19,-29 -40,-38l-3 -3c18,-19 5,-33 -6,-49 -11,-17 -43,-24 -34,-53 3,-8 -9,-21 -19,-29 -4,-3 -17,0 -26,0 1,15 -24,23 -13,40 1,2 -2,8 -5,10 -14,13 -30,25 -40,39 -10,13 -18,29 2,42 -13,8 -26,14 -35,23 -6,5 -10,15 -9,22 1,3 1,6 1,9 76,-4 151,-9 227,-13z"/>
  <path class="fil8" d="M2843 5075c88,-6 177,-13 266,-18 1,-1 3,-3 5,-4 3,-3 0,-20 -6,-25 -18,-14 -24,-29 -18,-49 8,-30 -11,-47 -39,-60l-3 -3c18,-19 5,-33 -6,-49 -11,-17 -43,-24 -34,-53 3,-8 -10,-21 -19,-29 -4,-3 -17,0 -26,0 1,15 -24,23 -13,40 1,2 -2,8 -5,10 -14,13 -30,25 -40,39 -10,13 -18,29 2,42 -13,8 -26,14 -35,23 -6,5 -10,15 -9,22 4,26 8,50 -21,69 -5,3 -8,18 -4,20 13,11 11,18 5,25z"/>
  <path class="fil8" d="M3497 5038c5,-28 -12,-44 -39,-56l-4 -4c19,-18 6,-32 -5,-49 -11,-17 -43,-24 -34,-52 3,-8 -10,-21 -19,-29 -4,-4 -17,0 -26,0 0,14 -25,23 -13,40 1,2 -3,7 -5,10 -14,13 -30,24 -41,39 -9,12 -18,28 3,41 -14,9 -26,15 -35,23 -6,6 -10,16 -9,23 1,8 2,16 3,24 74,-4 149,-8 224,-10z"/>
  <path class="fil8" d="M3967 5028c89,0 178,1 267,3l-3 -3c-17,-14 -23,-29 -18,-49 8,-30 -10,-47 -39,-60l-3 -4c19,-18 6,-32 -6,-49 -11,-17 -42,-23 -33,-52 2,-8 -10,-21 -19,-29 -5,-4 -18,0 -27,0 1,15 -24,23 -13,40 2,2 -2,7 -5,10 -13,13 -30,24 -40,39 -9,12 -18,29 2,42 -13,8 -25,14 -34,23 -6,5 -11,15 -10,22 5,25 8,49 -19,67z"/>
  <path class="fil8" d="M4515 5042c-1,-5 -3,-11 -6,-14 -18,-14 -24,-29 -19,-49 8,-30 -10,-47 -38,-60l-4 -4c19,-18 6,-32 -5,-49 -11,-17 -43,-23 -34,-52 3,-8 -10,-21 -19,-29 -4,-4 -17,0 -26,0 0,15 -25,23 -13,40 1,2 -3,7 -5,10 -14,13 -30,24 -41,39 -9,12 -18,29 3,42 -14,8 -26,14 -35,23 -6,5 -11,15 -9,22 4,26 7,50 -21,69l-1 1c91,3 182,7 273,11z"/>
  <path class="fil8" d="M4542 5043c77,4 154,9 231,14 -7,-11 -9,-23 -5,-36 8,-30 -10,-47 -39,-60l-3 -4c18,-18 5,-32 -6,-49 -11,-17 -43,-24 -34,-52 3,-8 -9,-21 -19,-29 -4,-4 -17,0 -26,0 1,14 -24,23 -13,40 1,2 -2,7 -5,10 -13,13 -30,24 -40,39 -10,12 -18,28 2,41 -13,9 -26,15 -35,24 -6,5 -10,15 -9,22 2,14 4,28 1,40z"/>
  <path class="fil8" d="M4800 5058c89,6 178,12 266,18 -6,-7 -11,-14 3,-23 4,-3 0,-20 -6,-25 -17,-14 -23,-29 -18,-49 8,-30 -10,-47 -39,-60l-3 -3c19,-19 6,-33 -5,-50 -12,-17 -43,-23 -34,-52 2,-8 -10,-21 -19,-29 -5,-4 -18,0 -27,0 1,15 -24,23 -13,40 2,2 -2,7 -5,10 -13,13 -29,25 -40,39 -9,12 -18,29 2,42 -13,8 -25,14 -34,23 -6,5 -11,15 -10,22 5,26 8,50 -20,69 -5,3 -8,18 -5,20 4,3 6,6 7,8z"/>
  <path class="fil8" d="M5091 5078c84,5 168,11 253,17l-3 -4c-18,-14 -24,-30 -19,-49 9,-30 -10,-47 -38,-60l-4 -4c19,-18 6,-32 -5,-49 -11,-17 -43,-24 -34,-52 3,-8 -10,-21 -19,-29 -4,-4 -17,0 -26,0 0,14 -25,23 -13,40 1,2 -3,7 -5,10 -14,13 -30,24 -41,39 -9,12 -18,28 3,41 -14,9 -26,15 -35,23 -6,6 -10,16 -9,23 3,19 6,38 -5,54z"/>
  <path class="fil8" d="M5335 5094c105,7 211,13 316,19 -7,-10 -16,-19 -22,-28 -6,-10 -26,-18 -5,-32 4,-3 0,-20 -6,-25 -18,-14 -24,-29 -18,-49 8,-30 -10,-47 -39,-60l-3 -3c19,-19 5,-33 -6,-50 -11,-17 -43,-23 -34,-52 3,-8 -9,-21 -19,-29 -4,-3 -17,0 -26,0 1,15 -24,23 -13,40 1,2 -2,8 -5,10 -13,13 -30,25 -40,39 -9,13 -18,29 2,42 -13,8 -26,14 -35,23 -5,5 -10,15 -9,22 5,26 8,50 -20,69 -5,3 -8,18 -5,20 21,17 2,26 -7,37 -2,2 -4,5 -6,7z"/>
  <path class="fil8" d="M5633 5112c55,3 110,5 165,8 35,1 70,2 105,3 -8,-8 -20,-16 -2,-29 4,-2 1,-19 -6,-24 -17,-14 -23,-30 -18,-49 8,-30 -10,-47 -39,-60l-3 -4c19,-18 6,-32 -5,-49 -12,-17 -43,-23 -34,-52 2,-8 -10,-21 -19,-29 -5,-4 -17,0 -27,0 1,14 -24,23 -13,40 2,2 -2,7 -5,10 -13,13 -29,24 -40,39 -9,12 -18,28 2,42 -13,8 -25,14 -34,23 -6,5 -11,15 -9,22 4,26 7,50 -21,69 -5,3 -8,17 -5,20 10,8 11,14 8,20z"/>
  <path class="fil8" d="M6213 5124c0,-2 -2,-6 -4,-8 -8,-11 -18,-20 -26,-31 -6,-10 -25,-18 -4,-32 3,-3 0,-20 -6,-25 -18,-14 -24,-29 -19,-49 9,-30 -10,-47 -38,-60l-3 -3c18,-19 5,-33 -6,-49 -11,-17 -43,-24 -34,-53 3,-8 -10,-21 -19,-29 -4,-3 -17,0 -26,0 0,15 -25,23 -13,40 1,2 -2,8 -5,10 -14,13 -30,25 -41,39 -9,13 -17,29 3,42 -13,8 -26,14 -35,23 -6,5 -10,15 -9,22 4,26 8,50 -21,69 -5,3 -8,18 -4,20 21,17 2,26 -8,37 -8,11 -23,26 -24,35 114,3 228,2 342,2z"/>
  <path class="fil8" d="M6178 5124c94,0 188,0 282,1 -7,-9 -24,-17 -4,-31 4,-2 0,-19 -6,-24 -17,-14 -23,-30 -18,-49 8,-30 -10,-47 -39,-60l-3 -4c19,-18 5,-32 -6,-49 -11,-17 -43,-23 -33,-52 2,-8 -10,-21 -19,-29 -5,-4 -18,0 -27,0 1,15 -24,23 -13,40 1,2 -2,7 -5,10 -13,13 -30,24 -40,39 -9,12 -18,29 2,42 -13,8 -25,14 -35,23 -5,5 -10,15 -9,22 5,26 8,50 -20,69 -5,3 -8,17 -5,20 18,15 7,23 -2,32z"/>
  <path class="fil8" d="M6492 5125c78,2 156,5 233,10 -8,-11 -10,-23 -6,-37 8,-30 -10,-47 -39,-60l-3 -4c19,-18 5,-32 -6,-49 -11,-17 -43,-24 -34,-52 3,-8 -9,-21 -19,-29 -4,-4 -17,0 -26,0 1,14 -24,23 -13,40 1,2 -2,7 -5,10 -13,13 -30,24 -40,39 -10,12 -18,28 2,41 -13,9 -26,15 -35,24 -6,5 -10,15 -9,22 3,16 5,31 0,45z"/>
  <path class="fil8" d="M539 5234l477 0 0 -1c-7,-16 -16,-31 -25,-46 -5,-7 -16,-16 -14,-20 12,-24 -5,-41 -16,-58 -11,-15 -28,-28 -12,-48 1,-1 -2,-6 -4,-9 -8,-11 -18,-20 -26,-32 -6,-9 -25,-17 -4,-32 3,-2 0,-19 -6,-24 -18,-14 -24,-30 -19,-49 9,-30 -10,-47 -38,-60l-4 -4c19,-18 6,-32 -5,-49 -11,-17 -43,-24 -34,-52 3,-8 -10,-21 -19,-29 -4,-4 -17,0 -26,0 0,14 -25,23 -13,40 1,2 -3,7 -5,10 -14,13 -30,24 -41,39 -9,12 -18,28 3,42 -14,8 -26,14 -35,23 -6,5 -10,15 -9,22 4,26 8,50 -21,69 -5,3 -8,17 -4,20 21,17 2,26 -8,37 -10,12 -27,30 -23,38 11,22 -3,34 -15,48 -4,5 -11,10 -12,15 -4,33 -12,63 -36,90 -4,5 -8,13 -6,18l0 2z"/>
  <path class="fil7" d="M4668 5050c34,2 67,4 101,6 -3,-4 -6,-7 -9,-11 -11,-13 -18,-26 -6,-41 2,-2 2,-6 1,-8 -4,-10 -7,-20 -13,-30 -11,-16 -23,-32 -21,-51 0,-2 0,-4 -1,-5 -3,-2 -6,-5 -10,-6 -3,0 -8,3 -10,5 -2,3 -4,7 -3,10 8,25 -5,48 -16,71 -8,18 -15,35 -12,54 1,2 0,4 -1,6z"/>
  <path class="fil7" d="M5798 5120c74,2 148,4 223,4 0,-3 0,-6 -1,-10 -1,-9 -6,-17 -17,-23 -8,-4 -8,-8 -5,-13 2,-5 6,-10 8,-15 4,-8 7,-16 9,-25 1,-5 -3,-9 -11,-11 -12,-3 -15,-8 -15,-16 0,-10 1,-21 0,-32 -1,-11 -19,-21 -35,-21 -13,0 -21,6 -25,19l0 1c-1,24 -10,46 -20,68 -5,10 -10,20 -17,29 -5,7 -13,7 -20,1 -2,-2 -5,-4 -6,-6 -4,-12 -10,-23 -12,-35 -3,-14 -10,-27 -22,-38 -15,-13 -23,-27 -22,-44 1,-10 1,-21 -1,-31 -1,-8 -3,-17 -15,-23 -1,2 -2,2 -2,3 -8,27 -16,54 -25,81 -5,19 -12,37 -17,56 -4,16 -7,32 -11,48 -2,10 -4,20 -10,29 23,1 46,3 69,4z"/>
  <path class="fil7" d="M7494 5116c-14,-2 -27,-5 -41,-7 -29,-3 -46,-24 -36,-39 8,-12 20,-19 35,-25 22,-8 38,-20 45,-36 4,-8 6,-17 1,-26 -3,1 -5,1 -6,1 -28,6 -39,0 -37,-19 1,-5 2,-9 1,-14 0,-3 -3,-6 -4,-8 -4,1 -8,2 -11,3 -18,8 -36,13 -58,8 -22,-5 -28,-22 -15,-33 9,-8 18,-16 24,-24 10,-13 16,-26 14,-40 -2,-11 -10,-14 -25,-8 -8,3 -16,7 -25,11 -12,4 -23,1 -22,-8 0,-5 4,-11 9,-14 15,-9 17,-19 11,-31 -6,-14 -13,-30 2,-45 2,-2 -1,-8 -5,-10 -2,-3 -9,-3 -14,-3 -6,0 -12,1 -17,2 -10,2 -17,0 -19,-7 -3,-7 -3,-14 -5,-20 -7,-17 -19,-32 -45,-40 -8,-2 -15,-2 -19,3 -16,24 -22,41 -48,57 -29,18 -33,0 -37,35 -5,36 12,64 -33,87 -40,20 -91,7 -131,21 -44,15 -45,55 -63,87 -13,-7 -28,-13 -42,-17 -12,23 -29,14 -50,22 3,-1 -54,22 -33,25 -23,-3 -37,8 -37,28 -40,-15 -18,59 -76,13 -11,-9 -27,-12 -40,1 -1,1 -2,2 -4,3 -11,8 -23,7 -28,-3 -6,-10 -10,-21 -14,-31 -6,-17 -9,-34 -19,-50 -11,-17 -16,-35 -19,-53 -3,-13 -7,-26 -12,-39 -3,-6 -9,-12 -14,-17 -1,0 -3,0 -5,0 -1,8 -3,15 -5,23 -3,14 -5,28 -9,41 -5,18 -10,36 -16,54 -5,17 -11,34 -15,52 -5,19 -8,38 -11,57 -1,11 -5,21 -19,28 -9,4 -19,3 -25,-3 -5,-5 -8,-11 -10,-17 -7,-22 -12,-45 -20,-67 -2,-7 -2,-16 -15,-21 -1,3 -3,5 -3,8 -2,21 -3,43 -7,65 -2,12 -6,25 -11,37 -1,4 -3,8 -6,11 266,1 530,10 788,71 99,-3 198,0 297,6 13,-8 26,-17 38,-27 17,-13 27,-28 28,-45 0,-6 -2,-11 -12,-13z"/>
  <path class="fil7" d="M5691 5114c-4,-13 -7,-27 -11,-40 -4,-11 -9,-21 -16,-31 -2,-4 -8,-6 -13,-9 -3,4 -8,8 -8,12 -1,18 0,36 -2,53 -1,5 -2,9 -2,13 17,1 35,2 52,2z"/>
  <path class="fil5" d="M7279 5119l-2 1 0 74c265,5 530,46 793,74 315,33 630,63 945,100 306,36 612,80 911,143 80,-82 141,-195 116,-278 -31,-106 -63,-62 -134,-108 -84,-54 -65,-85 -170,-82 -43,1 -97,39 -122,38 -43,-1 -84,-18 -122,-42 -60,-39 -112,-96 -148,-140 12,-9 32,-29 28,-44 -4,-16 -9,-32 9,-45 2,-2 0,-8 -3,-11 -2,-2 -9,-4 -14,-5 -6,0 -12,1 -17,1 -11,1 -17,-2 -18,-9 -1,-7 -1,-14 -2,-21 -4,-18 -14,-33 -38,-44 -8,-4 -15,-4 -19,1 -5,6 -9,12 -14,18 -13,19 -27,36 -65,37 -16,0 -20,4 -20,15 0,8 1,15 2,23 1,10 -2,17 -16,21 -5,2 -9,4 -12,7 -8,10 -15,20 -22,30 -6,8 -10,16 -22,19 -18,6 -36,11 -56,14 -11,2 -13,5 -13,12 -1,19 11,35 26,52 12,12 11,14 -7,20 -2,1 -4,2 -7,2 -16,3 -32,5 -49,6 -8,1 -14,3 -15,8 0,9 -1,17 2,25 5,11 14,21 20,32 5,7 10,14 4,22 -13,18 -34,30 -55,43 -2,1 -10,1 -11,0 -19,-15 -38,-30 -43,-49 -7,-22 -13,-44 -12,-66 1,-10 -1,-20 -3,-29 0,-3 -6,-6 -9,-9 -4,3 -9,4 -10,7 -7,12 -13,25 -20,37 -8,14 -17,29 -26,44 -2,2 -9,6 -12,5 -5,-1 -11,-4 -13,-8 -4,-8 -5,-17 -8,-25 -2,-6 -1,-14 -15,-19 -6,12 -12,23 -18,35 -4,5 -7,10 -13,15 -8,7 -17,6 -26,-1 -7,-5 -12,-12 -17,-18 -9,-11 -16,-23 -27,-34 -10,-10 -24,-15 -39,-4 -2,1 -3,2 -5,3 -12,6 -24,3 -28,-6 -3,-11 -6,-22 -8,-33 -4,-18 -4,-35 -11,-52 -9,-18 -10,-36 -11,-54 0,-14 -2,-27 -5,-41 -2,-6 -7,-12 -11,-18 -2,0 -4,0 -5,0 -3,7 -6,14 -9,21 -5,14 -10,27 -15,41 -8,17 -16,34 -24,51 -8,16 -17,33 -24,49 -7,19 -13,37 -19,56 -4,11 -9,20 -24,25 -9,4 -20,2 -24,-5 -4,-6 -6,-12 -7,-18 -4,-23 -5,-46 -10,-69 -1,-7 0,-16 -11,-22 -2,2 -4,5 -4,7 -6,21 -11,42 -17,63 -4,13 -11,25 -17,36 -4,8 -12,13 -16,21 -8,15 -13,31 -21,46 -5,9 -14,18 -33,21 0,-3 -1,-6 -1,-8 0,-15 -7,-28 -26,-38 -8,-3 -8,-5 -4,-10 15,-19 11,-43 -11,-58 -12,-9 -25,-10 -35,0 -7,5 -10,12 -15,19 -6,9 -10,18 -18,27 -4,4 -13,7 -21,8 -10,1 -17,-5 -21,-11 -4,-7 -7,-14 -9,-21 -3,-15 -3,-29 -6,-44 -1,-5 -6,-11 -9,-17 -14,3 -19,8 -21,15 -3,8 -3,16 -6,24 -6,16 -10,31 -19,46 -6,11 -19,20 -39,24 -10,2 -17,-1 -23,-6 -6,-4 -8,-9 -4,-15 12,-19 20,-39 20,-61 0,-9 -4,-18 -14,-25 -7,-5 -6,-9 -3,-14 3,-4 8,-9 11,-13 5,-8 9,-16 13,-24 2,-5 -2,-10 -9,-12 -12,-5 -14,-10 -13,-18 2,-10 4,-21 5,-32 1,-11 -15,-23 -31,-25 -13,-1 -22,4 -28,16l0 2c-5,23 -17,44 -31,65 -6,9 -13,18 -21,26 -6,6 -14,5 -20,-1 -2,-2 -4,-4 -5,-7 -2,-12 -6,-24 -7,-36 0,-14 -5,-27 -16,-40 -12,-15 -18,-30 -14,-46 3,-10 4,-21 4,-31 0,-8 0,-17 -12,-25 -1,2 -2,3 -2,3 -13,26 -25,52 -37,78 -9,18 -18,35 -26,53 -7,16 -12,31 -18,47 -5,11 -8,23 -21,32 -5,4 -11,8 -19,5 -5,-3 -11,-8 -12,-12 -3,-15 -3,-30 -5,-45 -2,-11 -6,-22 -11,-33 -1,-4 -8,-7 -12,-10 -3,3 -8,7 -9,11 -4,17 -6,35 -11,52 -3,14 -9,26 -15,39 -1,2 -6,6 -8,5 -4,-1 -10,-4 -11,-6 -4,-8 -7,-15 -10,-23 -4,-8 -5,-17 -18,-24 -2,2 -3,4 -4,5 -11,34 -23,67 -34,101 -9,27 -21,54 -38,79 -8,11 -20,20 -37,25 -4,1 -10,0 -15,0 0,-4 -1,-7 0,-10 3,-4 7,-8 11,-12 10,-11 21,-22 29,-33 8,-10 3,-19 -10,-27 -6,-3 -12,-7 -17,-11 -23,-17 -37,-37 -47,-58 -3,-6 -10,-12 -21,-13 -10,-2 -20,1 -23,7 -7,10 -11,20 -16,30 -7,14 -13,28 -20,41 -5,9 -18,14 -30,12 -10,-1 -17,0 -20,4l1 12c2,5 5,10 8,15 4,7 2,13 -6,15z"/>
  <path class="fil8" d="M8369 5299c215,22 431,44 646,69 244,29 488,62 730,107 120,23 238,55 358,77 88,16 171,51 259,65 78,12 212,80 268,57 86,-36 139,-187 200,-248 38,-38 -101,-196 -184,-198 -71,-3 -138,-19 -204,-27 -122,-14 -121,2 -103,-90 -9,2 -74,12 -70,-5 1,-5 6,-11 12,-13 16,-7 20,-15 16,-28 -3,-16 -7,-32 11,-44 3,-2 1,-8 -2,-12 -2,-2 -9,-4 -14,-5 -5,0 -11,0 -17,0 -10,1 -17,-2 -18,-9 -1,-7 0,-14 -1,-21 -3,-18 -12,-34 -36,-46 -7,-3 -14,-4 -19,1 -6,6 -9,12 -14,18 -15,18 -29,35 -67,35 -16,0 -21,3 -21,14 0,8 1,15 1,23 1,10 -3,17 -17,21 -4,1 -9,3 -11,6 -9,10 -17,20 -24,30 -6,7 -11,15 -23,18 -18,5 -37,10 -56,12 -12,2 -14,5 -14,11 -1,19 10,37 24,53 12,13 11,15 -8,21 -2,0 -4,1 -7,2 -16,1 -32,3 -49,4 -8,1 -15,2 -15,8 -1,8 -2,17 1,25 4,10 12,21 19,31 4,8 8,16 2,23 -13,17 -35,29 -57,41 -2,2 -9,1 -11,0 -17,-16 -36,-31 -41,-50 -6,-22 -11,-44 -8,-67 1,-9 0,-19 -2,-29 -1,-3 -6,-6 -9,-9 -4,3 -9,4 -11,7 -7,12 -13,24 -21,36 -9,14 -18,29 -28,43 -2,3 -9,6 -12,5 -5,-1 -11,-5 -12,-8 -4,-8 -5,-17 -8,-26 -2,-6 0,-14 -13,-19 -7,12 -14,23 -20,34 -4,5 -8,10 -13,15 -9,6 -18,6 -27,-2 -6,-5 -11,-12 -16,-18 -8,-12 -15,-24 -25,-35 -10,-11 -24,-16 -39,-5 -2,1 -3,2 -5,2 -12,6 -24,3 -28,-7 -3,-11 -5,-22 -7,-33 -3,-17 -2,-35 -9,-52 -7,-18 -8,-36 -8,-54 0,-14 -2,-28 -4,-41 -1,-6 -7,-13 -10,-19 -2,0 -4,0 -5,0 -3,7 -6,14 -9,21 -6,14 -12,27 -18,40 -8,17 -17,34 -26,51 -8,16 -18,32 -26,49 -8,18 -15,36 -21,54 -4,11 -10,20 -25,25 -9,3 -20,1 -24,-6 -3,-6 -5,-12 -6,-18 -3,-24 -4,-47 -7,-70 -1,-7 1,-15 -11,-22 -1,3 -3,5 -4,7 -6,21 -12,42 -20,63 -4,12 -10,24 -18,35 -4,7 -12,13 -16,20 -9,15 -14,31 -23,46 -6,9 -15,17 -34,20 0,-4 -1,-6 0,-9 0,-14 -7,-28 -25,-38 -7,-4 -8,-6 -4,-10 16,-18 13,-42 -8,-58 -12,-10 -25,-11 -36,-2 -6,6 -10,13 -15,19 -6,9 -11,18 -19,26 -4,4 -14,8 -22,8 -10,1 -17,-5 -20,-11 -4,-8 -7,-15 -8,-22 -2,-15 -2,-29 -5,-44 -1,-6 -5,-11 -8,-18 -13,3 -19,8 -21,15 -3,8 -4,16 -7,24 -7,15 -12,31 -21,45 -7,11 -20,20 -40,23 -10,1 -17,-2 -23,-7 -6,-4 -7,-9 -3,-14 13,-19 21,-40 22,-61 0,-9 -3,-18 -12,-26 -7,-5 -7,-9 -3,-13 4,-5 8,-9 11,-14 5,-7 10,-15 14,-23 2,-5 -1,-10 -9,-13 -11,-4 -13,-10 -11,-17 2,-11 5,-21 6,-32 1,-11 -14,-23 -30,-26 -13,-2 -22,3 -28,15l-1 2c-6,22 -19,43 -33,64 -7,8 -14,17 -23,25 -6,6 -13,5 -19,-1 -2,-3 -4,-5 -5,-7 -2,-12 -5,-24 -5,-36 -1,-15 -4,-28 -15,-41 -11,-15 -16,-30 -12,-46 3,-10 5,-21 5,-31 0,-9 1,-17 -10,-25 -2,1 -3,2 -3,3 -14,25 -27,50 -40,76 -9,17 -19,35 -28,53 -8,15 -14,30 -20,45 -5,12 -9,24 -22,32 -5,4 -12,8 -19,4 -6,-2 -11,-8 -12,-12 -2,-15 -2,-30 -4,-45 -1,-11 -4,-23 -8,-33 -2,-4 -8,-7 -12,-11 -4,4 -9,7 -10,11 -5,17 -8,35 -13,52 -4,13 -10,26 -16,39 -1,2 -7,5 -9,4 -4,-1 -9,-4 -11,-7 -4,-7 -6,-15 -9,-22 -3,-9 -4,-18 -17,-25 -2,2 -3,3 -4,5 -12,33 -25,66 -38,100 -10,27 -23,53 -42,78 -7,10 -19,18 -36,23z"/>
  <path class="fil8" d="M8070 5268c94,10 189,19 283,29 0,-3 -1,-6 0,-8 3,-4 8,-8 11,-11 11,-11 22,-22 31,-33 8,-10 4,-19 -9,-27 -6,-4 -11,-8 -16,-12 -22,-17 -36,-37 -45,-59 -3,-6 -9,-12 -20,-14 -11,-2 -20,0 -24,6 -7,10 -12,20 -17,30 -7,14 -14,27 -22,40 -5,9 -18,14 -30,12 -17,-3 -24,1 -21,12 1,7 5,13 9,19 4,6 1,12 -7,14 -8,2 -15,1 -22,-4 -19,-14 -25,-30 -29,-46 -5,-16 -7,-33 -11,-49 -2,-8 -6,-16 -8,-24l-4 -1c-3,2 -6,4 -8,6 -4,11 -8,22 -13,32 -5,9 -11,18 -17,26 -6,8 -12,15 -17,23 -8,12 -15,24 -22,36 9,1 18,2 28,3z"/>
  <path class="fil8" d="M7409 5199c188,12 375,36 561,58 0,-8 -4,-16 -10,-23 -20,-21 -32,-43 -34,-67 -1,-6 -6,-9 -14,-10 -6,-1 -13,-1 -19,0 -12,2 -22,5 -34,7 -10,1 -12,-1 -13,-7 -5,-22 -9,-43 -15,-65 -7,-23 -13,-47 -7,-70 2,-7 2,-14 2,-21 0,-5 -2,-10 -5,-15 -4,-7 -12,-8 -17,-2 -7,7 -12,14 -16,22 -11,23 -21,46 -32,69 -6,12 -22,15 -40,10 -19,-6 -23,-16 -9,-24 2,-2 5,-4 7,-5 17,-8 20,-18 12,-31 -2,-4 -4,-8 -6,-12 -9,-16 -20,-33 -16,-50 3,-14 -3,-27 -10,-40 -8,-15 -12,-29 2,-41 2,-2 3,-6 3,-8 -2,-11 -4,-21 -8,-31 -6,-18 -16,-36 -10,-54 0,-1 1,-3 0,-5 -3,-2 -5,-6 -9,-7 -3,-1 -8,1 -10,3 -3,3 -5,7 -5,10 2,25 -14,46 -30,67 -12,16 -22,33 -22,52 0,3 -2,6 -4,8 -2,2 -6,4 -8,4 -3,0 -6,-3 -8,-5 -4,-7 -7,-14 -11,-22 -3,1 -7,2 -9,4 -4,6 -8,12 -10,18 -9,24 -14,49 -31,71 -2,1 -2,3 -3,5 -5,10 -11,20 -17,30 -10,17 -21,34 -30,52 -10,18 -16,38 -26,56 -9,18 -19,36 -39,49 -3,2 -2,7 -2,10 0,4 1,7 2,10z"/>
  <path class="fil7" d="M8070 5268c37,4 74,7 111,11 -2,-2 -5,-3 -7,-5 -22,-18 -36,-38 -45,-59 -3,-7 -9,-12 -20,-14 -10,-2 -20,0 -24,6 -6,10 -11,20 -17,30 -5,10 -10,19 -15,29 6,0 11,1 17,2z"/>
  <path class="fil7" d="M7236 5193c138,1 276,12 413,27 -4,-20 -8,-40 -14,-60 -6,-24 -13,-47 -6,-70 1,-7 2,-14 1,-21 0,-5 -2,-10 -5,-15 -4,-7 -12,-8 -17,-2 -6,7 -12,14 -16,22 -11,23 -21,46 -32,69 -6,12 -21,15 -40,9 -19,-5 -22,-15 -9,-24 2,-1 5,-3 8,-4 16,-8 20,-18 12,-32 -2,-3 -4,-7 -6,-11 -10,-16 -20,-33 -17,-50 3,-14 -2,-27 -10,-41 -8,-14 -12,-28 2,-41 3,-2 4,-5 3,-8 -2,-10 -3,-20 -7,-31 -7,-17 -17,-35 -11,-53 1,-2 1,-4 0,-5 -2,-3 -5,-6 -8,-7 -15,-4 -50,115 -69,132 -46,43 -135,22 -180,74 -40,47 -1,80 7,128 0,5 1,10 1,14z"/>
  <path class="fil7" d="M9015 5368c291,36 613,57 892,139 223,66 492,79 691,196 78,-87 156,-183 230,-275 -17,-9 -44,-44 -61,-48 -33,-7 -99,20 -136,21 -47,1 -121,11 -164,8 -52,-3 -78,-33 -125,-43 -68,-13 -210,30 -172,-85 -20,5 -48,8 -68,0 -21,-8 -25,-26 -8,-35 10,-6 20,-13 28,-20 12,-11 20,-23 21,-37 1,-11 -7,-15 -23,-12 -9,2 -18,5 -27,7 -12,3 -22,-2 -20,-10 1,-5 6,-11 12,-13 17,-7 20,-16 17,-29 -4,-15 -7,-31 10,-44 3,-2 1,-8 -2,-11 -2,-2 -8,-4 -13,-5 -6,-1 -12,0 -18,0 -10,0 -17,-3 -17,-10 -1,-7 0,-14 -1,-20 -3,-18 -12,-34 -36,-46 -8,-3 -15,-4 -20,1 -5,5 -9,12 -14,18 -14,18 -29,35 -67,35 -16,-1 -20,3 -20,14 -1,7 0,15 1,23 1,10 -3,17 -18,21 -4,1 -9,3 -11,6 -9,9 -16,19 -24,30 -5,7 -10,15 -22,18 -19,5 -37,10 -57,12 -11,2 -13,5 -14,11 -1,19 10,36 25,53 11,13 10,14 -8,20 -3,1 -5,2 -7,2 -17,2 -33,4 -49,5 -9,0 -15,2 -16,7 0,9 -2,17 1,25 4,11 13,22 19,32 5,8 9,15 2,23 -13,17 -35,29 -56,41 -2,1 -10,1 -11,0 -18,-16 -36,-32 -41,-51 -6,-22 -12,-44 -9,-66 1,-9 0,-19 -2,-29 0,-3 -6,-6 -9,-9 -4,2 -8,4 -10,7 -8,11 -14,24 -21,35 -9,15 -19,30 -29,44 -1,2 -8,6 -11,5 -5,-1 -11,-5 -13,-8 -3,-9 -4,-17 -7,-26 -2,-6 -1,-14 -14,-19 -7,12 -13,23 -20,34 -3,5 -7,10 -13,14 -9,7 -18,7 -27,-1 -6,-6 -11,-12 -15,-18 -9,-12 -16,-24 -26,-35 -9,-11 -23,-16 -39,-6 -1,1 -3,2 -5,3 -12,6 -24,3 -27,-7 -4,-11 -5,-22 -7,-33 -3,-17 -3,-35 -9,-52 -8,-18 -9,-36 -9,-54 0,-14 -1,-28 -4,-41 -1,-7 -6,-13 -10,-19 -1,0 -3,0 -5,0 -3,7 -6,14 -9,21 -6,13 -11,27 -18,40 -8,17 -17,34 -25,50 -9,17 -19,33 -26,49 -8,18 -15,37 -22,55 -4,11 -9,20 -24,25 -10,3 -20,0 -24,-6 -4,-6 -6,-13 -7,-19 -2,-23 -3,-46 -6,-69 -1,-7 0,-15 -11,-23 -2,3 -4,5 -4,8 -7,21 -13,42 -20,63 -5,12 -11,24 -18,35 -4,7 -13,13 -17,20 -8,15 -14,31 -23,46 -3,4 -6,8 -11,12l3 0z"/>
  <path class="fil7" d="M8989 5365c0,-14 -8,-26 -25,-36 -7,-4 -8,-6 -4,-10 17,-19 13,-43 -8,-59 -12,-9 -25,-10 -35,-1 -7,6 -11,12 -16,19 -6,8 -11,18 -19,26 -4,4 -13,7 -21,8 -10,1 -17,-6 -21,-12 -3,-7 -6,-14 -7,-22 -3,-14 -3,-28 -5,-43 -1,-6 -6,-12 -9,-18 -13,3 -19,8 -21,15 -3,8 -4,16 -7,24 -6,15 -11,31 -20,45 -8,11 -21,20 -40,23 -11,1 -18,-2 -24,-7 -5,-4 -7,-9 -3,-15 13,-19 21,-39 22,-60 1,-9 -2,-18 -12,-26 -7,-5 -6,-9 -3,-14 4,-4 9,-8 12,-13 5,-7 9,-15 13,-23 3,-5 -1,-10 -8,-13 -12,-4 -13,-10 -12,-17 2,-11 5,-21 6,-32 1,-11 -14,-24 -30,-26 -13,-2 -22,3 -28,15l0 1c-7,23 -19,44 -34,64 -7,9 -14,18 -22,26 -6,6 -14,5 -20,-2 -2,-2 -4,-4 -4,-6 -3,-12 -6,-25 -6,-36 0,-15 -4,-28 -14,-41 -12,-15 -17,-30 -12,-46 3,-11 4,-21 4,-32 1,-8 1,-17 -10,-24 -1,1 -2,2 -3,3 -13,25 -26,50 -40,76 -9,17 -19,35 -28,52 -7,15 -14,31 -20,46 -5,12 -9,23 -22,32 -5,4 -11,8 -19,4 -6,-2 -11,-8 -12,-12 -2,-15 -1,-31 -3,-46 -2,-11 -5,-22 -9,-33 -1,-3 -8,-7 -12,-10 -3,3 -9,7 -10,11 -5,17 -7,35 -13,52 -4,13 -10,26 -16,38 -1,2 -7,5 -8,5 -5,-1 -10,-4 -11,-7 -4,-7 -6,-15 -9,-23 -4,-8 -4,-17 -18,-24 -1,2 -2,3 -3,5 -13,33 -26,66 -38,99 -3,7 -6,14 -9,21 249,25 498,50 746,79z"/>
  <path class="fil9" d="M5568 5108c77,5 153,8 230,12 84,3 169,4 254,4 -168,-8 -330,-13 -484,-16z"/>
  <path class="fil9" d="M12228 5754l0 474 -12228 0 0 -1058c282,-19 663,-43 1117,-66 919,-46 2134,-88 3425,-80 1180,8 2424,59 3561,187 2556,288 3674,462 4125,543z"/>
  <path class="fil10" d="M11249 5796l0 202 -11249 0 0 -828c282,-19 663,-43 1117,-66 919,-46 2134,-88 3425,-80 874,59 1756,135 2582,228 2557,289 3674,463 4125,544z"/>
  <path class="fil11" d="M11249 6214l0 202 -11249 0 0 -1058c282,-19 663,-43 1117,-66 1730,32 4031,156 6007,379 2557,288 3674,462 4125,543z"/>
  <path class="fil12" d="M12245 4469l0 3511 -12237 0 0 -3091c0,0 9569,2227 12237,-420z"/>
  <path class="fil9" d="M12245 4908l0 3255 -12237 0 0 -2835c0,0 35,8 102,23 405,90 1978,425 3890,647 1865,217 4052,327 5795,0 2,-1 5,-1 8,-2 367,-69 714,-157 1035,-269 109,-38 215,-78 318,-122 10,-4 21,-8 31,-13 417,-179 776,-404 1058,-684z"/>
  <path class="fil10" d="M12245 4386l0 3777 -12237 0 0 -966c4780,304 7705,-153 9490,-781 174,-61 337,-124 490,-188 124,-52 241,-104 352,-157 51,-24 100,-49 149,-73 166,-84 317,-169 454,-254 75,-46 146,-93 213,-139 7,-5 14,-9 21,-14 644,-447 910,-862 1011,-1068 43,-87 57,-137 57,-137z"/>
  <path class="fil11" d="M12245 6854l0 1309 -12237 0 0 -777c0,0 7763,859 12237,-532z"/>
  <path class="fil13" d="M11374 1662c-84,-1 -169,6 -253,20 -16,3 -34,7 -47,19 -11,11 -16,26 -21,41 -12,42 -9,100 -19,143 -45,-30 -94,-55 -145,-75 -17,-7 -38,-13 -54,-4 -10,6 -16,16 -21,26 -27,50 -42,106 -44,162 12,-57 68,-87 126,-95 58,-8 116,9 171,29 10,-103 96,-201 197,-227 48,-12 74,-4 110,-39z"/>
  <path class="fil13" d="M8834 3426c-35,-24 -72,-44 -111,-61 -8,-3 -16,-6 -25,-5 -8,1 -14,7 -20,12 -17,14 -32,39 -47,54 -11,-25 -25,-49 -40,-71 -6,-8 -12,-16 -22,-16 -5,-1 -11,2 -16,5 -24,13 -46,33 -63,56 21,-21 53,-18 79,-6 27,13 46,36 64,59 32,-40 95,-58 144,-41 24,8 33,19 57,14z"/>
  <path class="fil13" d="M2150 2909c-41,-36 -85,-68 -132,-96 -9,-6 -20,-11 -31,-11 -10,1 -19,6 -27,12 -24,15 -47,44 -69,61 -10,-33 -23,-66 -39,-97 -6,-11 -13,-22 -25,-24 -7,-2 -15,1 -21,3 -34,14 -65,35 -90,61 30,-23 70,-14 102,6 31,21 53,53 71,86 48,-46 131,-58 191,-28 29,14 38,29 70,27z"/>
  <path class="fil13" d="M2695 1931c44,-39 91,-73 141,-102 10,-6 21,-12 33,-12 11,1 21,6 30,12 25,16 49,48 73,66 11,-36 25,-71 42,-104 6,-11 14,-23 27,-26 7,-1 15,1 22,4 36,14 69,37 96,65 -32,-24 -75,-15 -108,7 -34,21 -57,56 -76,91 -52,-49 -140,-61 -204,-30 -32,15 -41,31 -76,29z"/>
 </g>
</svg>
